<?xml version="1.0" encoding="iso-8859-1"?>
<!-- Uploaded to: SVG Repo, www.svgrepo.com, Generator: SVG Repo Mixer Tools -->
<svg version="1.1" id="Layer_1" xmlns="http://www.w3.org/2000/svg" xmlns:xlink="http://www.w3.org/1999/xlink" 
	 viewBox="0 0 512 512" xml:space="preserve">
<circle style="fill:#FEE187;" cx="256" cy="256" r="256"/>
<path style="fill:#FFC61B;" d="M512,256c0-7.416-0.334-14.755-0.952-22.011L364.725,87.666l-52.743,134.296l-7.811-7.811
	L144.829,421.979l89.059,89.059c7.29,0.624,14.66,0.96,22.113,0.96C397.384,512,512,397.384,512,256z"/>
<path style="fill:#D35933;" d="M154.433,426.667h203.133c6.744,0,12.21-5.467,12.21-12.21V97.544c0-6.744-5.467-12.21-12.21-12.21
	H154.433c-6.744,0-12.212,5.467-12.212,12.21v316.911C142.222,421.2,147.689,426.667,154.433,426.667z"/>
<path style="fill:#B54324;" d="M357.566,85.333H255.424v341.333h102.141c6.744,0,12.21-5.467,12.21-12.21V97.544
	C369.778,90.8,364.311,85.333,357.566,85.333z"/>
<g>
	<rect x="156.444" y="113.778" style="fill:#FF7F4F;" width="199.111" height="69.818"/>
	<rect x="156.444" y="206.869" style="fill:#FF7F4F;" width="199.111" height="69.818"/>
	<rect x="156.444" y="299.96" style="fill:#FF7F4F;" width="199.111" height="69.818"/>
</g>
<g>
	<rect x="255.431" y="113.778" style="fill:#D35933;" width="100.124" height="69.818"/>
	<rect x="255.431" y="206.869" style="fill:#D35933;" width="100.124" height="69.818"/>
	<rect x="255.431" y="299.96" style="fill:#D35933;" width="100.124" height="69.818"/>
</g>
<g>
	<rect x="170.667" y="126.707" style="fill:#273B7A;" width="28.444" height="56.889"/>
	<rect x="312.889" y="219.798" style="fill:#273B7A;" width="28.444" height="56.889"/>
</g>
<g>
	<rect x="205.576" y="126.707" style="fill:#386895;" width="15.515" height="56.889"/>
	<rect x="183.596" y="312.889" style="fill:#386895;" width="15.515" height="56.889"/>
	<rect x="212.04" y="312.889" style="fill:#386895;" width="15.515" height="56.889"/>
</g>
</svg>